<svg xmlns="http://www.w3.org/2000/svg" xmlns:xlink="http://www.w3.org/1999/xlink" viewBox="0 0 596.46 616.24"><defs><style>.cls-1{fill:none;}.cls-2{clip-path:url(#clip-path);}.cls-3{fill:#c3e5d4;}.cls-4{fill:#ffe3b3;}.cls-5{fill:#038175;}.cls-6{fill:#0bb68c;}.cls-7{fill:#fff;}</style><clipPath id="clip-path" transform="translate(0 -12.58)"><path class="cls-1" d="M466.07,12.58H209.6V0h-21V12.58H129.2A129.2,129.2,0,0,0,0,141.78V478.65a129.2,129.2,0,0,0,129.2,129.2H466.07a129.2,129.2,0,0,0,129.21-129.2V141.78A129.2,129.2,0,0,0,466.07,12.58Z"/></clipPath></defs><g id="Layer_2" data-name="Layer 2"><g id="Layer_1-2" data-name="Layer 1"><g class="cls-2"><rect class="cls-3" width="595.28" height="595.28"/><polygon class="cls-4" points="0 4.19 0 616.24 596.46 616.24 596.46 425.46 0 4.19"/><polygon class="cls-5" points="0 335.37 0 616.24 397.68 616.24 0 335.37"/><path class="cls-6" d="M0,16.77,277.09,375.52A403.52,403.52,0,0,0,596.46,532.4h0V438Z" transform="translate(0 -12.58)"/><circle class="cls-7" cx="452.75" cy="146.72" r="67.07"/></g></g></g></svg>