<svg xmlns="http://www.w3.org/2000/svg" viewBox="0 0 106.88 106"><defs><style>.cls-1,.cls-3,.cls-4,.cls-5{fill:none;stroke-linecap:round;stroke-linejoin:round;stroke-width:2px;}.cls-1{stroke:#cfd1d3;}.cls-2{fill:#73bc33;}.cls-3,.cls-4{stroke:#1c1c1c;}.cls-4{stroke-dasharray:5.03 5.03;}.cls-5{stroke:#73bc33;}</style></defs><g id="Layer_2" data-name="Layer 2"><g id="Layer_1-2" data-name="Layer 1"><polygon class="cls-1" points="1 105 1 24.39 15.93 24.39 27.87 36.33 33.84 79.13 57.73 88.08 67.68 98.04 67.68 105 1 105"/><path class="cls-2" d="M80.8,11.87A17.4,17.4,0,1,1,63.63,29.52,17.4,17.4,0,0,1,80.8,11.87ZM77.34,28.21a2.38,2.38,0,0,1,1.36-.73c.38-.09.51,0,.55.39a1.34,1.34,0,0,1,0,.4,12.67,12.67,0,0,1-.18,1.36c-.36,1.72-.74,3.44-1.11,5.17a12.91,12.91,0,0,0-.4,3.16,2.34,2.34,0,0,0,1.74,2.35,4.6,4.6,0,0,0,4.82-1,7.31,7.31,0,0,0,1.42-2.23.18.18,0,0,0,0-.16l-.9-.66c-.23.47-.42.92-.67,1.34a2.28,2.28,0,0,1-1.15,1.1c-.39.14-.56,0-.7-.33a4.59,4.59,0,0,1-.21-2.23c.15-1,.36-2,.56-3,.25-1.3.57-2.59.77-3.9a4.8,4.8,0,0,0-.92-3.79,2.43,2.43,0,0,0-3.26-.65,9.65,9.65,0,0,0-2.52,2.29.17.17,0,0,0,0,.17Zm1.28-7.7c0,.2,0,.42.08.62a2.14,2.14,0,0,0,1.57,1.8,2.59,2.59,0,0,0,2.67-1,2.76,2.76,0,0,0,.06-3,2.45,2.45,0,0,0-4.38,1.63Z"/><line class="cls-3" x1="13.44" y1="93.56" x2="15.28" y2="91.86"/><line class="cls-4" x1="18.98" y1="88.45" x2="61.51" y2="49.19"/><line class="cls-3" x1="63.36" y1="47.48" x2="65.19" y2="45.79"/><path class="cls-1" d="M35.83,19.41S33.34,76.64,93.06,76.64"/><line class="cls-3" x1="94.17" y1="91.82" x2="105.88" y2="91.82"/><line class="cls-3" x1="100.03" y1="85.6" x2="100.03" y2="98.04"/><line class="cls-3" x1="4.6" y1="7.22" x2="16.31" y2="7.22"/><line class="cls-3" x1="10.45" y1="1" x2="10.45" y2="13.44"/><line class="cls-5" x1="6.59" y1="42.05" x2="18.3" y2="42.05"/><line class="cls-5" x1="12.45" y1="35.83" x2="12.45" y2="48.27"/><line class="cls-5" x1="31.47" y1="93.81" x2="43.18" y2="93.81"/><line class="cls-5" x1="37.33" y1="87.59" x2="37.33" y2="100.03"/></g></g></svg>