<svg xmlns="http://www.w3.org/2000/svg" viewBox="0 0 87 110"><defs><style>.cls-1,.cls-2,.cls-3{fill:none;stroke-linecap:round;stroke-linejoin:round;stroke-width:2px;}.cls-1{stroke:#1c1c1c;}.cls-2{stroke:#cfd1d3;}.cls-3{stroke:#73bc33;}.cls-4{fill:#73bc33;}</style></defs><g id="Layer_2" data-name="Layer 2"><g id="Layer_1-2" data-name="Layer 1"><path class="cls-1" d="M61.74,15.43a22.91,22.91,0,1,0-1.79,34l5.22,5.22a2.61,2.61,0,0,0,.13,3.54l9.94,9.95a2.62,2.62,0,0,0,3.7,0L82.07,65a2.61,2.61,0,0,0,0-3.7l-9.94-10a2.61,2.61,0,0,0-3.54-.13L63.36,46A22.91,22.91,0,0,0,61.74,15.43Zm-29,29a18.09,18.09,0,1,1,25.58,0A18.09,18.09,0,0,1,32.75,44.42Z"/><polyline class="cls-2" points="1 107.5 1 81 86 81 86 109"/><polyline class="cls-3" points="22.5 80.5 22.5 72.5 65.5 72.5 65.5 81.1"/><path class="cls-3" d="M33,72a11.6,11.6,0,0,1,9-4,11.6,11.6,0,0,1,9,4"/><polyline class="cls-1" points="14.66 107.48 14.66 89.5 72.34 89.5 72.34 108.5"/><line class="cls-1" x1="22" y1="98" x2="66" y2="98"/><line class="cls-1" x1="22.5" y1="104" x2="47.5" y2="104"/><polygon class="cls-1" points="17 1 17 12 28 1 17 1"/><polygon class="cls-4" points="1 70 12 70 1 59 1 70"/><path class="cls-4" d="M45.5,21.5a10,10,0,1,0,10,10A10,10,0,0,0,45.5,21.5Zm0,14a4,4,0,1,1,4-4A4,4,0,0,1,45.5,35.5Z"/></g></g></svg>