<svg xmlns="http://www.w3.org/2000/svg" viewBox="0 0 870.03 142.79"><defs><style>.cls-1{fill:#80b33d;}.cls-2{fill:#1a7ac5;}.cls-3{fill:#333;}</style></defs><title>logo-gwadestek</title><g id="Layer_2" data-name="Layer 2"><g id="Layer_1-2" data-name="Layer 1"><path class="cls-1" d="M109.38,90s-7.39,22.07.51,30,29.78-12.77,63-46c25.1-25.1,47.47-58.34,62.9-60.11,14.29-1.63,23.55,40.19,21.48,68.21-3,39.86-21,59.11-31,60.53-10.33,1.48-23.62-7.38-29.53-22.14,0,0-2.4-6,10.09,1.54,12.06,7.32,20.76-.7,24.35-18.66s3.6-31,0-46.12-7.86-15-11.53-11.53c-2.6,2.47-54.84,62.16-91.95,87.76-24,16.54-35.91-4.31-32.32-18.67S104,93.26,108.3,89.67C108.3,89.67,109,89,109.38,90Z"/><path class="cls-2" d="M169.89,14S212.41-9.37,211,4.28,191.78,41.19,178.49,56C142.07,96.42,95.81,140.11,55.3,139.41,24.43,138.89-.16,110.58,0,69.75.11,41,19,20.52,46,15.88c17.75-3.06,36.63-.72,72.54,16.52a25.7,25.7,0,0,1-7.93,2.88,20,20,0,0,1-8.59-.73S76.58,20.6,48.57,23.47s-34,31-31.33,49.15C19.39,87.46,32,116.41,74,112.84,118,109.1,163.89,62,189.89,25,199.4,11.47,176,18,176,18S168.46,16.87,169.89,14Z"/><rect class="cls-3" x="302.76" y="9.45" width="11.56" height="129.07"/><path class="cls-3" d="M365.15,58.11V19.66h13.54a14.71,14.71,0,0,1,5.13.89,12.56,12.56,0,0,1,4.16,2.5,11.61,11.61,0,0,1,3.81,8.75A11.62,11.62,0,0,1,388,40.61a12.7,12.7,0,0,1-4.16,2.49,14.71,14.71,0,0,1-5.13.89H372.4V58.11Zm13.65-21a5.47,5.47,0,0,0,4.29-1.62,5.33,5.33,0,0,0,1.45-3.7,5.92,5.92,0,0,0-.35-2,4.55,4.55,0,0,0-1.07-1.69,5.35,5.35,0,0,0-1.8-1.15,6.72,6.72,0,0,0-2.52-.43h-6.4V37.12Z"/><path class="cls-3" d="M405.11,58.11V26.54H394.37V19.66H423.1v6.88H412.36V58.11Z"/><path class="cls-3" d="M428.42,58.11a4.61,4.61,0,0,1-3.31-1.32,4.27,4.27,0,0,1-1.36-3.19,4.2,4.2,0,0,1,1.36-3.16,4.67,4.67,0,0,1,3.31-1.29,4.53,4.53,0,0,1,3.27,1.29A4.23,4.23,0,0,1,433,53.6a4.29,4.29,0,0,1-1.35,3.19A4.47,4.47,0,0,1,428.42,58.11Z"/><path class="cls-3" d="M468.48,37h18.85a11.85,11.85,0,0,1,.27,1.56,15.87,15.87,0,0,1,.11,1.82,21.33,21.33,0,0,1-1.13,7A16.14,16.14,0,0,1,483,53.23a17.85,17.85,0,0,1-6.18,4.24,21.21,21.21,0,0,1-8.22,1.5,20.82,20.82,0,0,1-7.89-1.5,19.69,19.69,0,0,1-6.45-4.19A20.31,20.31,0,0,1,450,46.92a19.86,19.86,0,0,1-1.61-8,19.86,19.86,0,0,1,1.61-8,20.31,20.31,0,0,1,4.35-6.36,19.69,19.69,0,0,1,6.45-4.19,21.92,21.92,0,0,1,16.24.1,18.64,18.64,0,0,1,6.31,4.46l-5,4.89a13.25,13.25,0,0,0-4.19-3,14.5,14.5,0,0,0-10.53-.1,12.37,12.37,0,0,0-4.13,2.66,12.64,12.64,0,0,0-2.82,4.16,14.67,14.67,0,0,0,0,10.9,12.42,12.42,0,0,0,2.85,4.16,12.66,12.66,0,0,0,4.16,2.66,14.75,14.75,0,0,0,10.23.05,12.14,12.14,0,0,0,3.62-2.28,8.65,8.65,0,0,0,1.86-2.44,13.64,13.64,0,0,0,1.2-3.31H468.48Z"/><path class="cls-3" d="M490.18,19.66h7.68l6,22.45.86,4.14h.43l1.13-4.14,5.53-17.29h6.77l5.58,17.29,1.07,4.08h.43l.81-4.08L532,19.66h7.68l-10.2,38.45h-7l-6-18.52-1.12-4.25h-.43l-1.13,4.25-6,18.52h-7Z"/><path class="cls-3" d="M553.23,19.66h8.27L576,58.11h-8l-3.17-9.18H550l-3.17,9.18h-8Zm9.18,22.61L559,32.66,557.58,28h-.43l-1.4,4.67-3.44,9.61Z"/><path class="cls-3" d="M365.15,89h13a22.72,22.72,0,0,1,8.22,1.4,17.77,17.77,0,0,1,6.23,3.94,17.12,17.12,0,0,1,3.94,6.1,21.27,21.27,0,0,1,1.37,7.78,21.5,21.5,0,0,1-1.37,7.85,16.91,16.91,0,0,1-3.94,6.07,18.16,18.16,0,0,1-6.23,3.92,22.94,22.94,0,0,1-8.22,1.39h-13Zm12.68,31.58a16.17,16.17,0,0,0,5.58-.89,10.74,10.74,0,0,0,4-2.5,10.18,10.18,0,0,0,2.42-3.89,16.5,16.5,0,0,0,0-10.15,10.18,10.18,0,0,0-2.42-3.89,10.74,10.74,0,0,0-4-2.5,16.17,16.17,0,0,0-5.58-.89H372.4v24.71Z"/><path class="cls-3" d="M411,95.91v8.92h15.41v6.87H411v8.92h17.13v6.87H403.77V89h24.38v6.87Z"/><path class="cls-3" d="M446.57,128.35a15.79,15.79,0,0,1-4.73-.7,13.52,13.52,0,0,1-4.13-2.09,14.39,14.39,0,0,1-3.28-3.41,16.58,16.58,0,0,1-2.2-4.7l6.82-2.69a10.4,10.4,0,0,0,2.63,4.81,6.65,6.65,0,0,0,4.94,1.91,7.86,7.86,0,0,0,2.18-.3,6.46,6.46,0,0,0,1.88-.86A4.14,4.14,0,0,0,452,118.9a3.92,3.92,0,0,0,.49-2,4.78,4.78,0,0,0-.38-1.93,4.53,4.53,0,0,0-1.26-1.61,11,11,0,0,0-2.31-1.45,33.42,33.42,0,0,0-3.52-1.45l-2.36-.86a17.93,17.93,0,0,1-3.14-1.45,14.09,14.09,0,0,1-2.88-2.2,10.89,10.89,0,0,1-2.12-3,9.12,9.12,0,0,1-.83-4,10.13,10.13,0,0,1,.89-4.21,10.34,10.34,0,0,1,2.52-3.44A12,12,0,0,1,441,89a14.83,14.83,0,0,1,5.08-.83,14.58,14.58,0,0,1,5,.78,12.41,12.41,0,0,1,3.6,2,11.18,11.18,0,0,1,2.39,2.65,13.47,13.47,0,0,1,1.34,2.74L452.05,99a6.78,6.78,0,0,0-2-2.9,5.6,5.6,0,0,0-3.9-1.29,6.67,6.67,0,0,0-3.92,1.1,3.35,3.35,0,0,0-1.55,2.87,3.65,3.65,0,0,0,1.5,2.93,16.37,16.37,0,0,0,4.78,2.34l2.42.8a28.68,28.68,0,0,1,4.21,1.85,13.17,13.17,0,0,1,3.28,2.5,10.22,10.22,0,0,1,2.09,3.3,11.55,11.55,0,0,1,.73,4.27,10.59,10.59,0,0,1-1.21,5.19,11.16,11.16,0,0,1-3.09,3.57,13.33,13.33,0,0,1-4.24,2.09A16.15,16.15,0,0,1,446.57,128.35Z"/><path class="cls-3" d="M476.38,89h8.27l14.44,38.45h-8l-3.17-9.18H473.1l-3.17,9.18h-8Zm9.18,22.61L482.12,102l-1.39-4.68h-.43L478.9,102l-3.44,9.61Z"/><path class="cls-3" d="M503.6,89h7.25v38.45H503.6Z"/><path class="cls-3" d="M518.59,89H527l15.47,25.78h.43l-.43-7.41V89h7.19v38.45h-7.62l-16.33-27.23h-.43l.43,7.41v19.82h-7.14Z"/><path class="cls-3" d="M575.25,127.49V95.91H564.5V89h28.74v6.87H582.5v31.58Z"/><path class="cls-3" d="M605.64,95.91v8.92h15.41v6.87H605.64v8.92h17.13v6.87H598.39V89h24.38v6.87Z"/><path class="cls-3" d="M629.43,89h7.25v16.49h.43L651.18,89h8.76v.43L646,105.37l15.36,21.69v.43h-8.86l-11.44-16.38-4.41,5.1v11.28h-7.25Z"/><path class="cls-3" d="M665.36,89h8.43l15.47,25.78h.43l-.43-7.41V89h7.2v38.45h-7.63L672.5,100.26h-.43l.43,7.41v19.82h-7.14Z"/><path class="cls-3" d="M721.86,128.35a20.21,20.21,0,0,1-8-1.56,19.47,19.47,0,0,1-10.58-10.66,21,21,0,0,1,0-15.73,19.47,19.47,0,0,1,10.58-10.66,21.16,21.16,0,0,1,16,0,19.39,19.39,0,0,1,10.58,10.66,21,21,0,0,1,0,15.73,19.39,19.39,0,0,1-10.58,10.66A20.2,20.2,0,0,1,721.86,128.35Zm0-6.87a13.09,13.09,0,0,0,5-1,12.44,12.44,0,0,0,4.08-2.69,12.16,12.16,0,0,0,2.74-4.16,15.2,15.2,0,0,0,0-10.79A12.16,12.16,0,0,0,731,98.71,12.44,12.44,0,0,0,726.88,96a13.47,13.47,0,0,0-10,0,12.59,12.59,0,0,0-4.09,2.69,12.31,12.31,0,0,0-2.74,4.16,15.2,15.2,0,0,0,0,10.79,12.31,12.31,0,0,0,2.74,4.16,12.59,12.59,0,0,0,4.09,2.69A13.05,13.05,0,0,0,721.86,121.48Z"/><path class="cls-3" d="M747.8,89h7.25v31.58h16.27v6.87H747.8Z"/><path class="cls-3" d="M793.87,128.35a20.2,20.2,0,0,1-8-1.56,19.47,19.47,0,0,1-10.58-10.66,21,21,0,0,1,0-15.73A19.47,19.47,0,0,1,785.9,89.74a21.16,21.16,0,0,1,16,0,19.47,19.47,0,0,1,10.58,10.66,21,21,0,0,1,0,15.73,19.47,19.47,0,0,1-10.58,10.66A20.21,20.21,0,0,1,793.87,128.35Zm0-6.87a13.14,13.14,0,0,0,5-1,12.66,12.66,0,0,0,4.08-2.69,12.31,12.31,0,0,0,2.74-4.16,15.2,15.2,0,0,0,0-10.79A12.31,12.31,0,0,0,803,98.71,12.66,12.66,0,0,0,798.9,96a13.5,13.5,0,0,0-10,0,12.55,12.55,0,0,0-4.08,2.69,12.16,12.16,0,0,0-2.74,4.16,15.2,15.2,0,0,0,0,10.79,12.16,12.16,0,0,0,2.74,4.16,12.55,12.55,0,0,0,4.08,2.69A13.09,13.09,0,0,0,793.87,121.48Z"/><path class="cls-3" d="M837.54,106.39h18.85a15.66,15.66,0,0,1,.27,1.55,16,16,0,0,1,.1,1.83,21.06,21.06,0,0,1-1.13,7,16.1,16.1,0,0,1-3.54,5.85,17.74,17.74,0,0,1-6.18,4.25,21.13,21.13,0,0,1-8.21,1.5,20.87,20.87,0,0,1-7.9-1.5,19.54,19.54,0,0,1-6.44-4.19,19.91,19.91,0,0,1-4.35-6.37,20.81,20.81,0,0,1,0-16.05,19.91,19.91,0,0,1,4.35-6.37,19.7,19.7,0,0,1,6.44-4.19,22,22,0,0,1,16.25.11,18.7,18.7,0,0,1,6.31,4.46l-5,4.89a12.34,12.34,0,0,0-9.72-4.09,13.49,13.49,0,0,0-5,.94,12.4,12.4,0,0,0-7,6.82,14.83,14.83,0,0,0,0,10.91,12.52,12.52,0,0,0,2.85,4.16,13,13,0,0,0,4.16,2.66,13.69,13.69,0,0,0,5,.94,13.44,13.44,0,0,0,5.18-.89,12.06,12.06,0,0,0,3.63-2.28,8.87,8.87,0,0,0,1.85-2.45,13.84,13.84,0,0,0,1.21-3.3H837.54Z"/><path class="cls-3" d="M862.78,89H870v38.45h-7.25Z"/></g></g></svg>