<svg xmlns="http://www.w3.org/2000/svg" viewBox="0 0 104.96 104.5"><defs><style>.cls-1,.cls-2,.cls-3{fill:none;stroke-linecap:round;stroke-linejoin:round;stroke-width:2px;}.cls-1{stroke:#1c1c1c;}.cls-2{stroke:#73bc33;}.cls-3{stroke:#cfd1d3;}.cls-4{fill:#73bc33;}</style></defs><g id="Layer_2" data-name="Layer 2"><g id="Layer_1-2" data-name="Layer 1"><path class="cls-1" d="M63.64,47.51V45l-3-1c0-.48-.11-1-.19-1.43l2.59-1.71-.66-2.47-3.09-.18c-.17-.46-.35-.9-.55-1.34l2.05-2.31-1.28-2.22-3,.62c-.28-.39-.58-.77-.88-1.15L57,29,55.22,27.2l-2.76,1.39c-.37-.31-.75-.61-1.15-.89l.62-3L49.71,23.4l-2.29,2c-.45-.2-.9-.39-1.36-.57l-.18-3.06-2.47-.66-1.69,2.56c-.48-.08-1-.15-1.46-.2l-1-2.9H36.73l-1,2.89c-.5.05-1,.11-1.47.19l-1.68-2.54-2.48.66-.18,3c-.46.18-.93.37-1.38.57l-2.27-2-2.22,1.28.61,3c-.41.29-.8.59-1.19.91L20.8,27.2,19,29l1.35,2.7c-.32.39-.62.79-.92,1.2l-3-.61-1.28,2.22,2,2.25c-.21.46-.4.93-.58,1.4l-3,.18-.67,2.47,2.52,1.66c-.09.5-.15,1-.2,1.51l-2.86,1v2.56l2.86,1c.05.51.11,1,.2,1.51l-2.52,1.65.67,2.48,3,.17c.18.48.37.95.58,1.41l-2,2.25,1.28,2.22,3-.61c.3.41.6.81.92,1.2L19,63.44l1.81,1.81,2.71-1.36c.39.32.78.63,1.19.92l-.61,3,2.22,1.28,2.27-2c.45.21.92.4,1.38.57l.18,3,2.48.66,1.68-2.55c.48.08,1,.15,1.47.19l1,2.9H39.3l1-2.9c.49,0,1-.12,1.46-.2l1.69,2.56,2.47-.66.18-3.07c.46-.17.91-.36,1.36-.56l2.29,2,2.22-1.28-.62-3c.4-.29.78-.58,1.15-.89l2.76,1.38L57,63.44l-1.39-2.77c.3-.37.6-.75.88-1.15l3,.63,1.28-2.22-2.05-2.31c.2-.44.38-.89.55-1.34l3.09-.18.66-2.48-2.59-1.7c.08-.48.14-1,.19-1.43ZM39.73,27.29a19,19,0,0,1,13.8,8L41.87,42a5.68,5.68,0,0,0-2.14-1.24ZM28.4,29.79a18.87,18.87,0,0,1,7.9-2.51V40.79A5.6,5.6,0,0,0,34.16,42l-4.79-2.77-6.94-4A19.05,19.05,0,0,1,28.4,29.79ZM20.71,54.24a19.11,19.11,0,0,1,0-16L32.45,45a5.61,5.61,0,0,0-.14,1.24,5.52,5.52,0,0,0,.14,1.23ZM36.3,65.18a19,19,0,0,1-13.87-8l11.73-6.77a5.73,5.73,0,0,0,2.14,1.24Zm1.71-16a3,3,0,1,1,3-3A3,3,0,0,1,38,49.19Zm1.72,16V51.67a5.81,5.81,0,0,0,2.14-1.24l11.66,6.74A19,19,0,0,1,39.73,65.17Zm15.51-11L43.58,47.46a5.52,5.52,0,0,0,.13-1.23A5.61,5.61,0,0,0,43.58,45l11.66-6.73a19,19,0,0,1,0,15.94Z"/><polygon class="cls-2" points="20.96 103.5 103.96 103.5 103.96 55.67 79.96 55.67 56.46 79.17 38.96 79.17 20.96 97.67 20.96 103.5"/><path class="cls-1" d="M8.5,72s0,9-7.5,9c0,0,7.5,0,7.5,9,0,0-1-9,7-9C15.5,81,8.5,81,8.5,72Z"/><path class="cls-3" d="M89.5,16s0,9-7.5,9c0,0,7.5,0,7.5,9,0,0-1-9,7-9C96.5,25,89.5,25,89.5,16Z"/><path class="cls-4" d="M13.5,0s0,9-7.5,9c0,0,7.5,0,7.5,9,0,0-1-9,7-9C20.5,9,13.5,9,13.5,0Z"/><rect class="cls-4" x="88.5" y="88" width="4" height="4" transform="translate(90.15 -37.63) rotate(45)"/><rect class="cls-4" x="72.5" y="72" width="4" height="4" transform="translate(74.15 -31.01) rotate(45)"/><rect class="cls-4" x="39.5" y="94" width="4" height="4" transform="translate(80.04 -1.23) rotate(45)"/></g></g></svg>