<svg xmlns="http://www.w3.org/2000/svg" xmlns:xlink="http://www.w3.org/1999/xlink" viewBox="0 0 89.57 75.5"><defs><style>.cls-1,.cls-3,.cls-4,.cls-5{fill:none;}.cls-2{clip-path:url(#clip-path);}.cls-3{stroke:#1c1c1c;}.cls-3,.cls-4,.cls-5{stroke-linecap:round;stroke-linejoin:round;stroke-width:2px;}.cls-4{stroke:#cfd1d3;}.cls-5{stroke:#73bc33;}.cls-6{fill:#73bc33;}</style><clipPath id="clip-path"><polygon class="cls-1" points="4.46 74.5 87.46 74.5 87.46 26.67 63.46 26.67 39.96 50.17 22.46 50.17 4.46 68.67 4.46 74.5"/></clipPath></defs><g id="Layer_2" data-name="Layer 2"><g id="Layer_1-2" data-name="Layer 1"><g class="cls-2"><line class="cls-3" x1="79.74" y1="74.45" x2="79.74" y2="26.79"/><line class="cls-3" x1="69.74" y1="74.45" x2="69.74" y2="26.79"/><line class="cls-3" x1="59.74" y1="74.45" x2="59.74" y2="26.79"/><line class="cls-3" x1="49.74" y1="74.45" x2="49.74" y2="26.79"/><line class="cls-3" x1="39.74" y1="74.45" x2="39.74" y2="26.79"/><line class="cls-3" x1="29.74" y1="74.45" x2="29.74" y2="26.79"/><line class="cls-3" x1="19.74" y1="74.45" x2="19.74" y2="26.79"/><line class="cls-3" x1="9.74" y1="74.45" x2="9.74" y2="26.79"/><line class="cls-3" x1="2" y1="65.62" x2="88.57" y2="65.62"/><line class="cls-3" x1="2" y1="55.62" x2="88.57" y2="55.62"/><line class="cls-3" x1="2" y1="45.62" x2="88.57" y2="45.62"/><line class="cls-3" x1="2" y1="35.62" x2="88.57" y2="35.62"/></g><polygon class="cls-4" points="4.46 74.5 87.46 74.5 87.46 26.67 63.46 26.67 39.96 50.17 22.46 50.17 4.46 68.67 4.46 74.5"/><path class="cls-5" d="M24.87,1h.3c0,.05,0,.11,0,.14a15.78,15.78,0,0,0,9.32,4.25c1.35.1,2.7.15,4.1.22,0,.15,0,.3,0,.45,0,5.7,0,11.4,0,17.1a12.21,12.21,0,0,1-.25,2.33A9.71,9.71,0,0,1,34,31.6c-2.32,1.61-4.74,3.07-7.11,4.6-.59.37-1.16.78-1.74,1.17h-.3l-2.25-1.49c-2.42-1.59-4.9-3.1-7.25-4.8a9.6,9.6,0,0,1-4-8.37c.05-5.45,0-10.9,0-16.35V5.77c2.34-.29,4.57-.4,6.72-.87A13.86,13.86,0,0,0,24.87,1ZM14.41,8.57v.84c0,4.39.07,8.79,0,13.18A7,7,0,0,0,17.58,29c2.32,1.57,4.69,3.06,7.06,4.55a.82.82,0,0,0,.73,0c2.41-1.52,4.83-3,7.18-4.64a6.91,6.91,0,0,0,3.1-6.21c-.07-4.47,0-8.94,0-13.41,0-.25,0-.49,0-.75-.23,0-.4-.08-.57-.09a17.56,17.56,0,0,1-9.59-3.33c-.37-.27-.61-.15-.93.07a17,17,0,0,1-7,3C16.47,8.33,15.47,8.43,14.41,8.57Z"/><path class="cls-6" d="M25,30.36V8.56c.24.11.43.19.62.3A19.23,19.23,0,0,0,32,11.15c.42.07.58.22.58.67,0,3.84,0,7.68,0,11.52A3.12,3.12,0,0,1,31.29,26C29.29,27.46,27.25,28.84,25,30.36Z"/><circle class="cls-5" cx="4" cy="46" r="3"/><circle class="cls-4" cx="58.5" cy="13.5" r="3"/></g></g></svg>